<?xml version="1.0" encoding="iso-8859-1"?>
<!-- Generator: Adobe Illustrator 26.4.1, SVG Export Plug-In . SVG Version: 6.00 Build 0)  -->
<svg version="1.1" id="Layer_1" xmlns="http://www.w3.org/2000/svg" xmlns:xlink="http://www.w3.org/1999/xlink" x="0px" y="0px"
	 viewBox="0 0 80.31 80.404" style="enable-background:new 0 0 80.31 80.404;" xml:space="preserve">
<g>
	<path style="fill:#0075FF;" d="M12.257,49.077c0.861,0,1.605-0.156,2.229-0.468c0.624-0.312,1.233-0.765,1.827-1.36
		c0.594-0.594,1.017-1.277,1.27-2.051c0.252-0.772,0.379-1.589,0.379-2.451c0-0.831-0.127-1.627-0.379-2.384
		c-0.253-0.758-0.676-1.433-1.27-2.028c-0.595-0.594-1.204-1.047-1.827-1.36c-0.624-0.312-1.367-0.468-2.229-0.468
		c-1.724,0-3.209,0.624-4.457,1.872c-0.387,0.386-0.684,0.788-0.892,1.204v6.462c0.207,0.417,0.505,0.818,0.892,1.204
		c0.594,0.595,1.277,1.047,2.05,1.36C10.623,48.921,11.425,49.077,12.257,49.077z"/>
	<path style="fill:#0075FF;" d="M79.602,47.494c-0.534,1.412-1.292,2.615-2.273,3.61c-0.981,0.996-2.169,1.776-3.565,2.34
		c-1.397,0.564-2.942,0.847-4.635,0.847c-2.704,0-4.932-0.787-6.685-2.362v8.786h-6.909V31.649h6.909v2.407
		c0.861-0.861,1.85-1.537,2.964-2.028c1.114-0.49,2.355-0.736,3.721-0.736c1.694,0,3.238,0.283,4.635,0.847
		c1.396,0.565,2.585,1.352,3.565,2.362c0.981,1.01,1.739,2.221,2.273,3.632c0.426,1.125,0.675,2.354,0.761,3.677
		c0.021-0.535,0.041-1.07,0.041-1.609C80.404,17.999,62.405,0,40.202,0C24.276,0,10.515,9.261,4.006,22.691h2.902v10.964
		c0.861-0.742,1.842-1.322,2.942-1.739c1.099-0.415,2.347-0.624,3.744-0.624c1.694,0,3.238,0.283,4.635,0.847
		c1.396,0.565,2.585,1.345,3.565,2.34c0.981,0.996,1.739,2.199,2.273,3.61c0.535,1.412,0.802,2.964,0.802,4.657
		c0,1.724-0.267,3.292-0.802,4.703c-0.534,1.412-1.292,2.622-2.273,3.632c-0.981,1.011-2.169,1.798-3.565,2.362
		c-1.397,0.564-2.942,0.847-4.635,0.847c-1.367,0-2.607-0.245-3.721-0.736c-1.114-0.49-2.102-1.151-2.964-1.983v2.362h-4.5
		c5.612,15.44,20.414,26.469,37.793,26.469c20.026,0,36.626-14.644,39.69-33.807C79.804,46.901,79.712,47.202,79.602,47.494z
		 M52.415,53.935h-6.908V42.747c0-0.831-0.053-1.619-0.157-2.362c-0.104-0.742-0.453-1.411-1.047-2.006
		c-1.248-1.248-2.749-1.872-4.502-1.872c-1.723,0-3.209,0.624-4.457,1.872c-0.387,0.386-0.684,0.788-0.892,1.204v14.351h-6.908
		V22.691h6.908v10.964c0.861-0.742,1.842-1.322,2.942-1.739c1.099-0.415,2.347-0.624,3.744-0.624c1.694,0,3.238,0.283,4.635,0.847
		c1.396,0.565,2.585,1.345,3.565,2.34c0.981,0.996,1.739,2.199,2.273,3.61c0.535,1.412,0.802,2.964,0.802,4.657V53.935z"/>
	<path style="fill:#0075FF;" d="M70.019,36.975c-0.624-0.312-1.367-0.468-2.229-0.468c-0.832,0-1.634,0.156-2.407,0.468
		c-0.773,0.313-1.456,0.766-2.05,1.36c-0.387,0.387-0.684,0.788-0.892,1.204v6.462c0.207,0.417,0.505,0.818,0.892,1.204
		c1.248,1.248,2.733,1.872,4.457,1.872c0.861,0,1.605-0.156,2.229-0.468c0.624-0.312,1.233-0.765,1.827-1.36
		c0.594-0.594,1.017-1.27,1.27-2.028c0.252-0.757,0.379-1.552,0.379-2.384c0-0.861-0.127-1.679-0.379-2.451
		c-0.253-0.773-0.676-1.456-1.27-2.051C71.252,37.741,70.643,37.288,70.019,36.975z"/>
</g>
</svg>
