<?xml version="1.0" encoding="iso-8859-1"?>
<!-- Generator: Adobe Illustrator 26.4.1, SVG Export Plug-In . SVG Version: 6.00 Build 0)  -->
<svg version="1.1" id="Layer_1" xmlns="http://www.w3.org/2000/svg" xmlns:xlink="http://www.w3.org/1999/xlink" x="0px" y="0px"
	 viewBox="0 0 259.768 80.404" style="enable-background:new 0 0 259.768 80.404;" xml:space="preserve">
<g>
	<path style="fill:#1D1D1B;" d="M40.1,32.338c0,2.779-0.431,5.307-1.293,7.582c-0.862,2.276-2.084,4.228-3.665,5.856
		c-1.581,1.63-3.497,2.9-5.749,3.809c-2.253,0.909-4.743,1.366-7.474,1.366c-2.204,0-4.204-0.396-6-1.186
		c-1.796-0.79-3.39-1.856-4.779-3.198v3.809H0V0h11.139v17.678c1.389-1.197,2.97-2.132,4.743-2.803
		c1.772-0.67,3.784-1.006,6.036-1.006c2.731,0,5.222,0.456,7.474,1.366c2.252,0.91,4.168,2.169,5.749,3.773
		c1.581,1.605,2.803,3.546,3.665,5.821C39.669,27.105,40.1,29.608,40.1,32.338z M26.303,25.224
		c-0.959-0.957-1.941-1.688-2.947-2.192c-1.006-0.503-2.205-0.754-3.594-0.754c-2.779,0-5.174,1.007-7.186,3.019
		c-0.624,0.623-1.103,1.27-1.438,1.941v10.42c0.334,0.672,0.814,1.319,1.438,1.941c0.957,0.959,2.059,1.688,3.305,2.192
		c1.246,0.503,2.539,0.754,3.88,0.754c1.389,0,2.588-0.251,3.594-0.754c1.006-0.504,1.987-1.233,2.947-2.192
		c0.957-0.958,1.64-2.06,2.048-3.306c0.406-1.245,0.611-2.563,0.611-3.952c0-1.34-0.205-2.623-0.611-3.844
		C27.943,27.271,27.26,26.183,26.303,25.224z"/>
	<path style="fill:#1D1D1B;" d="M84.511,50.376H73.373V32.338c0-1.34-0.085-2.61-0.252-3.808c-0.168-1.197-0.73-2.275-1.688-3.234
		c-2.013-2.012-4.432-3.019-7.259-3.019c-2.779,0-5.174,1.007-7.186,3.019c-0.624,0.623-1.103,1.27-1.438,1.941v23.14H44.412V0
		h11.139v17.678c1.389-1.197,2.97-2.132,4.743-2.803c1.772-0.67,3.784-1.006,6.036-1.006c2.731,0,5.222,0.456,7.474,1.366
		c2.252,0.91,4.168,2.169,5.749,3.773c1.581,1.605,2.803,3.546,3.665,5.821c0.863,2.276,1.293,4.779,1.293,7.509V50.376z"/>
	<path style="fill:#1D1D1B;" d="M129.64,32.482c0,2.73-0.431,5.234-1.293,7.509c-0.862,2.276-2.084,4.217-3.665,5.821
		c-1.581,1.606-3.497,2.864-5.749,3.773c-2.253,0.909-4.743,1.366-7.474,1.366c-4.36,0-7.953-1.269-10.779-3.809v14.165H89.541
		V14.444h11.139v3.88c1.389-1.389,2.983-2.479,4.779-3.269c1.796-0.79,3.796-1.186,6-1.186c2.731,0,5.222,0.456,7.474,1.366
		c2.252,0.91,4.168,2.18,5.749,3.809s2.803,3.581,3.665,5.856C129.209,27.177,129.64,29.704,129.64,32.482z M115.843,39.597
		c0.957-0.958,1.64-2.048,2.048-3.27c0.406-1.221,0.611-2.503,0.611-3.844c0-1.389-0.205-2.707-0.611-3.952
		c-0.407-1.246-1.091-2.347-2.048-3.306c-0.959-0.957-1.941-1.688-2.947-2.192c-1.006-0.503-2.205-0.754-3.594-0.754
		c-1.341,0-2.635,0.251-3.88,0.754c-1.247,0.504-2.348,1.235-3.305,2.192c-0.624,0.624-1.103,1.27-1.438,1.941v10.42
		c0.334,0.672,0.814,1.319,1.438,1.941c2.012,2.012,4.407,3.019,7.186,3.019c1.389,0,2.588-0.251,3.594-0.754
		C113.903,41.285,114.884,40.556,115.843,39.597z"/>
	<path style="fill:#1D1D1B;" d="M147.966,13.869c2.395,0,4.73,0.407,7.007,1.222c2.275,0.815,4.107,1.868,5.497,3.162l-6.036,7.33
		c-0.384-0.288-0.839-0.575-1.366-0.863c-0.528-0.288-1.091-0.562-1.689-0.827c-0.599-0.262-1.198-0.467-1.796-0.61
		c-0.599-0.144-1.138-0.216-1.617-0.216c-1.198,0-2.012,0.169-2.444,0.503c-0.431,0.336-0.646,0.696-0.646,1.078
		c0,0.384,0.324,0.755,0.97,1.114c0.647,0.36,1.448,0.731,2.408,1.114l4.383,1.869c1.725,0.718,3.127,1.509,4.204,2.371
		c1.078,0.863,1.916,1.786,2.516,2.766c0.598,0.983,0.993,2.024,1.185,3.127c0.191,1.102,0.288,2.253,0.288,3.449
		c0,1.868-0.407,3.474-1.221,4.814c-0.815,1.342-1.857,2.433-3.126,3.27c-1.27,0.838-2.708,1.449-4.312,1.832
		c-1.605,0.383-3.198,0.575-4.779,0.575c-3.114,0-5.905-0.516-8.372-1.545c-2.468-1.03-4.396-2.192-5.785-3.486l4.743-7.617
		c0.334,0.288,0.837,0.587,1.509,0.898c0.671,0.313,1.448,0.599,2.335,0.863c0.886,0.264,1.808,0.492,2.767,0.682
		c0.958,0.192,1.892,0.288,2.802,0.288c0.383,0,0.719-0.071,1.006-0.215c0.24-0.096,0.479-0.239,0.719-0.431
		c0.239-0.191,0.359-0.479,0.359-0.863c0-0.479-0.192-0.85-0.574-1.114c-0.384-0.262-1.127-0.635-2.228-1.113l-4.383-1.869
		c-2.875-1.246-4.984-2.755-6.324-4.528c-1.342-1.772-2.013-3.856-2.013-6.253c0-2.059,0.419-3.784,1.257-5.174
		c0.838-1.389,1.928-2.49,3.27-3.306c1.34-0.814,2.838-1.401,4.491-1.76C144.624,14.048,146.288,13.869,147.966,13.869z"/>
	<path style="fill:#1D1D1B;" d="M229.585,10.779c-1.677,0-3.126,0.288-4.348,0.863c-1.221,0.574-2.048,1.509-2.479,2.802h8.192
		v8.623h-8.48v27.308h-11.139V18.612c0-2.444,0.491-4.85,1.474-7.222c0.981-2.371,2.31-4.395,3.988-6.072
		c1.725-1.725,3.677-3.042,5.857-3.952C224.829,0.455,227.141,0,229.585,0c2.778,0,5.39,0.574,7.833,1.724l-5.389,9.415
		C231.166,10.899,230.351,10.779,229.585,10.779z"/>
	<path style="fill:#1D1D1B;" d="M259.768,23.067h-8.48v27.308h-11.139V23.067h-3.449v-8.623l14.588-12.863v12.863h8.48V23.067z"/>
	<circle style="fill:#0075FF;" cx="184.948" cy="32.839" r="17.702"/>
	<g>
		<path style="fill:#393E46;" d="M1.372,76.988l0.422-0.739c0.554,0.436,1.49,0.779,2.466,0.779c1.319,0,1.86-0.448,1.86-1.135
			c0-1.807-4.497-0.382-4.497-3.126c0-1.135,0.976-1.979,2.743-1.979c0.898,0,1.873,0.251,2.453,0.646L6.41,72.187
			c-0.607-0.422-1.332-0.594-2.045-0.594c-1.253,0-1.806,0.488-1.806,1.147c0,1.873,4.497,0.462,4.497,3.126
			c0,1.2-1.056,1.979-2.863,1.979C3.046,77.845,1.939,77.476,1.372,76.988z"/>
		<path style="fill:#393E46;" d="M14.475,70.842l-3.468,7.767c-0.581,1.359-1.319,1.794-2.308,1.794
			c-0.646,0-1.266-0.212-1.688-0.634l0.435-0.699c0.343,0.343,0.765,0.527,1.266,0.527c0.62,0,1.042-0.289,1.438-1.16l0.303-0.674
			l-3.099-6.923h0.976l2.611,5.895l2.611-5.895H14.475z"/>
		<path style="fill:#393E46;" d="M14.745,76.988l0.422-0.739c0.554,0.436,1.49,0.779,2.466,0.779c1.319,0,1.86-0.448,1.86-1.135
			c0-1.807-4.497-0.382-4.497-3.126c0-1.135,0.976-1.979,2.743-1.979c0.898,0,1.873,0.251,2.453,0.646l-0.408,0.752
			c-0.607-0.422-1.332-0.594-2.045-0.594c-1.253,0-1.806,0.488-1.806,1.147c0,1.873,4.497,0.462,4.497,3.126
			c0,1.2-1.056,1.979-2.863,1.979C16.419,77.845,15.312,77.476,14.745,76.988z"/>
		<path style="fill:#393E46;" d="M25.803,77.357c-0.369,0.329-0.923,0.488-1.464,0.488c-1.306,0-2.031-0.739-2.031-2.019v-4.194
			h-1.24v-0.79h1.24v-1.518h0.937v1.518h2.11v0.79h-2.11v4.142c0,0.818,0.422,1.266,1.2,1.266c0.382,0,0.765-0.119,1.028-0.356
			L25.803,77.357z"/>
		<path style="fill:#393E46;" d="M33.289,74.601h-5.803c0.105,1.45,1.214,2.413,2.73,2.413c0.844,0,1.596-0.303,2.124-0.909
			l0.527,0.606c-0.62,0.739-1.583,1.135-2.678,1.135c-2.163,0-3.641-1.478-3.641-3.535s1.438-3.522,3.39-3.522
			s3.363,1.438,3.363,3.522C33.301,74.389,33.289,74.495,33.289,74.601z M27.485,73.902h4.919c-0.118-1.359-1.107-2.308-2.466-2.308
			C28.594,71.594,27.604,72.543,27.485,73.902z"/>
		<path style="fill:#393E46;" d="M46.654,73.756v4.023h-0.937v-3.93c0-1.464-0.739-2.216-1.991-2.216
			c-1.425,0-2.322,0.924-2.322,2.506v3.641h-0.936v-3.93c0-1.464-0.739-2.216-2.005-2.216c-1.411,0-2.322,0.924-2.322,2.506v3.641
			h-0.936v-6.937h0.897v1.266c0.487-0.831,1.385-1.32,2.545-1.32c1.147,0,2.045,0.488,2.467,1.464
			c0.501-0.897,1.49-1.464,2.743-1.464C45.546,70.788,46.654,71.765,46.654,73.756z"/>
		<path style="fill:#393E46;" d="M51.674,76.988l0.422-0.739c0.554,0.436,1.49,0.779,2.466,0.779c1.319,0,1.86-0.448,1.86-1.135
			c0-1.807-4.497-0.382-4.497-3.126c0-1.135,0.976-1.979,2.743-1.979c0.898,0,1.873,0.251,2.453,0.646l-0.408,0.752
			c-0.607-0.422-1.332-0.594-2.045-0.594c-1.253,0-1.806,0.488-1.806,1.147c0,1.873,4.497,0.462,4.497,3.126
			c0,1.2-1.056,1.979-2.862,1.979C53.348,77.845,52.241,77.476,51.674,76.988z"/>
		<path style="fill:#393E46;" d="M66.108,74.31c0,2.11-1.478,3.535-3.455,3.535c-1.108,0-2.058-0.475-2.639-1.372v3.865h-0.936
			v-9.496h0.897v1.371c0.567-0.923,1.529-1.425,2.678-1.425C64.63,70.788,66.108,72.213,66.108,74.31z M65.171,74.31
			c0-1.609-1.121-2.704-2.585-2.704c-1.478,0-2.585,1.095-2.585,2.704c0,1.623,1.107,2.704,2.585,2.704
			C64.051,77.014,65.171,75.933,65.171,74.31z"/>
		<path style="fill:#393E46;" d="M71.506,70.788v0.91c-0.079,0-0.158-0.013-0.224-0.013c-1.45,0-2.334,0.923-2.334,2.559v3.534
			h-0.936v-6.937h0.897V72.2C69.343,71.277,70.227,70.788,71.506,70.788z"/>
		<path style="fill:#393E46;" d="M78.188,77.001v0.778h-5.646v-0.62l4.366-5.527h-4.286v-0.79h5.486v0.62l-4.365,5.539H78.188z"/>
		<path style="fill:#393E46;" d="M85.948,74.601h-5.803c0.105,1.45,1.214,2.413,2.73,2.413c0.844,0,1.596-0.303,2.124-0.909
			l0.527,0.606c-0.62,0.739-1.583,1.135-2.678,1.135c-2.163,0-3.641-1.478-3.641-3.535s1.438-3.522,3.39-3.522
			s3.363,1.438,3.363,3.522C85.961,74.389,85.948,74.495,85.948,74.601z M80.145,73.902h4.919c-0.118-1.359-1.107-2.308-2.466-2.308
			C81.253,71.594,80.264,72.543,80.145,73.902z"/>
		<path style="fill:#393E46;" d="M94.196,67.993v9.786h-0.898v-1.371c-0.566,0.936-1.529,1.438-2.677,1.438
			c-1.979,0-3.456-1.438-3.456-3.535c0-2.097,1.478-3.522,3.456-3.522c1.107,0,2.058,0.476,2.638,1.372v-4.168H94.196z
			 M93.272,74.31c0-1.622-1.107-2.704-2.571-2.704c-1.478,0-2.585,1.082-2.585,2.704c0,1.623,1.107,2.704,2.585,2.704
			C92.165,77.014,93.272,75.933,93.272,74.31z"/>
		<path style="fill:#393E46;" d="M102.033,73.48v4.299h-0.897v-1.082c-0.422,0.713-1.24,1.148-2.387,1.148
			c-1.569,0-2.532-0.818-2.532-2.019c0-1.068,0.686-1.965,2.678-1.965h2.203V73.44c0-1.187-0.673-1.833-1.965-1.833
			c-0.897,0-1.741,0.317-2.308,0.818l-0.422-0.699c0.699-0.594,1.727-0.937,2.822-0.937
			C101.018,70.788,102.033,71.686,102.033,73.48z M101.097,75.695v-1.135h-2.177c-1.345,0-1.781,0.528-1.781,1.24
			c0,0.805,0.646,1.306,1.754,1.306C99.95,77.107,100.728,76.606,101.097,75.695z"/>
		<path style="fill:#393E46;" d="M109.464,77.001v0.778h-5.646v-0.62l4.366-5.527h-4.286v-0.79h5.486v0.62l-4.365,5.539H109.464z
			 M106.008,68.837c0-0.357,0.278-0.634,0.634-0.634s0.634,0.277,0.634,0.634c0,0.356-0.278,0.633-0.634,0.633
			S106.008,69.193,106.008,68.837z"/>
		<path style="fill:#393E46;" d="M117.001,70.842l-3.468,7.767c-0.581,1.359-1.319,1.794-2.308,1.794
			c-0.646,0-1.266-0.212-1.688-0.634l0.435-0.699c0.343,0.343,0.765,0.527,1.266,0.527c0.62,0,1.042-0.289,1.438-1.16l0.303-0.674
			l-3.099-6.923h0.976l2.611,5.895l2.611-5.895H117.001z"/>
		<path style="fill:#393E46;" d="M124.335,74.297L122.7,75.8v1.979h-0.936v-9.786h0.936v6.634l4.142-3.785h1.161l-2.968,2.835
			l3.245,4.102h-1.147L124.335,74.297z"/>
		<path style="fill:#393E46;" d="M135.802,70.842v6.937h-0.897v-1.266c-0.487,0.844-1.385,1.332-2.492,1.332
			c-1.767,0-2.928-0.989-2.928-2.981v-4.023h0.937v3.93c0,1.477,0.764,2.229,2.084,2.229c1.45,0,2.361-0.937,2.361-2.52v-3.64
			H135.802z"/>
		<path style="fill:#393E46;" d="M141.912,70.788v0.91c-0.079,0-0.158-0.013-0.224-0.013c-1.45,0-2.334,0.923-2.334,2.559v3.534
			h-0.936v-6.937h0.897V72.2C139.749,71.277,140.633,70.788,141.912,70.788z"/>
		<path style="fill:#393E46;" d="M142.685,76.988l0.422-0.739c0.554,0.436,1.49,0.779,2.466,0.779c1.319,0,1.86-0.448,1.86-1.135
			c0-1.807-4.497-0.382-4.497-3.126c0-1.135,0.976-1.979,2.743-1.979c0.898,0,1.873,0.251,2.453,0.646l-0.408,0.752
			c-0.607-0.422-1.332-0.594-2.045-0.594c-1.253,0-1.806,0.488-1.806,1.147c0,1.873,4.497,0.462,4.497,3.126
			c0,1.2-1.056,1.979-2.863,1.979C144.36,77.845,143.252,77.476,142.685,76.988z"/>
		<path style="fill:#393E46;" d="M149.39,74.31c0-2.058,1.504-3.522,3.535-3.522s3.522,1.464,3.522,3.522s-1.49,3.535-3.522,3.535
			S149.39,76.368,149.39,74.31z M155.497,74.31c0-1.622-1.095-2.704-2.571-2.704c-1.478,0-2.585,1.082-2.585,2.704
			c0,1.623,1.107,2.704,2.585,2.704C154.402,77.014,155.497,75.933,155.497,74.31z M153.862,68.138h1.253l-2.137,1.636h-0.923
			L153.862,68.138z"/>
		<path style="fill:#393E46;" d="M168.335,70.842l-2.625,6.937h-0.884l-2.189-5.685l-2.189,5.685h-0.884l-2.611-6.937h0.897
			l2.177,5.895l2.229-5.895h0.804l2.216,5.895l2.203-5.895H168.335z"/>
		<path style="fill:#393E46;" d="M181.098,75.313c0,1.569-1.16,2.466-3.468,2.466h-4.247v-9.232h3.983
			c2.058,0,3.245,0.87,3.245,2.374c0,1.055-0.567,1.754-1.411,2.097C180.387,73.282,181.098,74.06,181.098,75.313z M174.359,69.352
			v3.349h2.941c1.478,0,2.334-0.566,2.334-1.675c0-1.108-0.857-1.675-2.334-1.675H174.359z M180.123,75.233
			c0-1.2-0.884-1.727-2.506-1.727h-3.257v3.469h3.257C179.239,76.975,180.123,76.447,180.123,75.233z"/>
		<path style="fill:#393E46;" d="M191.032,68.547v9.232h-0.961v-4.26h-5.777v4.26h-0.976v-9.232h0.976v4.115h5.777v-4.115H191.032z"
			/>
		<path style="fill:#393E46;" d="M201.256,71.712c0,1.965-1.425,3.152-3.772,3.152h-2.48v2.914h-0.977v-9.232h3.456
			C199.831,68.547,201.256,69.734,201.256,71.712z M200.28,71.712c0-1.478-0.977-2.322-2.823-2.322h-2.452v4.616h2.452
			C199.303,74.007,200.28,73.163,200.28,71.712z"/>
		<path style="fill:#393E46;" d="M206.042,74.31c0-2.058,1.503-3.522,3.534-3.522c2.031,0,3.523,1.464,3.523,3.522
			s-1.491,3.535-3.523,3.535C207.545,77.845,206.042,76.368,206.042,74.31z M212.148,74.31c0-1.622-1.094-2.704-2.571-2.704
			s-2.585,1.082-2.585,2.704c0,1.623,1.107,2.704,2.585,2.704S212.148,75.933,212.148,74.31z"/>
		<path style="fill:#393E46;" d="M221.386,73.756v4.023h-0.938v-3.93c0-1.464-0.764-2.216-2.084-2.216
			c-1.489,0-2.427,0.924-2.427,2.506v3.641h-0.936v-6.937h0.897v1.279c0.501-0.844,1.439-1.332,2.638-1.332
			C220.224,70.788,221.386,71.765,221.386,73.756z"/>
		<path style="fill:#393E46;" d="M223.408,73.796h3.454v0.818h-3.454V73.796z"/>
		<path style="fill:#393E46;" d="M228.954,67.993h0.936v9.786h-0.936V67.993z"/>
		<path style="fill:#393E46;" d="M232.287,68.652c0-0.356,0.302-0.659,0.686-0.659c0.382,0,0.684,0.289,0.684,0.646
			c0,0.382-0.289,0.685-0.684,0.685C232.589,69.324,232.287,69.021,232.287,68.652z M232.498,70.842h0.936v6.937h-0.936V70.842z"/>
		<path style="fill:#393E46;" d="M242.426,73.756v4.023h-0.938v-3.93c0-1.464-0.764-2.216-2.084-2.216
			c-1.489,0-2.427,0.924-2.427,2.506v3.641h-0.936v-6.937h0.897v1.279c0.501-0.844,1.439-1.332,2.638-1.332
			C241.264,70.788,242.426,71.765,242.426,73.756z"/>
		<path style="fill:#393E46;" d="M251.027,74.601h-5.803c0.105,1.45,1.214,2.413,2.731,2.413c0.844,0,1.595-0.303,2.123-0.909
			l0.528,0.606c-0.62,0.739-1.583,1.135-2.678,1.135c-2.162,0-3.64-1.478-3.64-3.535s1.437-3.522,3.39-3.522
			c1.951,0,3.363,1.438,3.363,3.522C251.041,74.389,251.027,74.495,251.027,74.601z M245.224,73.902h4.92
			c-0.119-1.359-1.107-2.308-2.466-2.308C246.333,71.594,245.342,72.543,245.224,73.902z"/>
	</g>
</g>
</svg>
